<svg xmlns="http://www.w3.org/2000/svg" viewBox="0 0 64 64" role="img" aria-label="Backlog Mantencion TI">
  <defs>
    <linearGradient id="bg" x1="8" y1="6" x2="56" y2="58" gradientUnits="userSpaceOnUse">
      <stop offset="0" stop-color="#1b2a48"/>
      <stop offset="1" stop-color="#3d5afe"/>
    </linearGradient>
    <linearGradient id="accent" x1="18" y1="18" x2="48" y2="48" gradientUnits="userSpaceOnUse">
      <stop offset="0" stop-color="#38bdf8"/>
      <stop offset="1" stop-color="#34d399"/>
    </linearGradient>
  </defs>
  <rect width="64" height="64" rx="16" fill="url(#bg)"/>
  <circle cx="49" cy="15" r="4" fill="#fb7185"/>
  <path d="M22 18h14a8 8 0 0 1 0 16h-3.5l9.5 12h-9.8l-8-10.2V46H16V18Zm8 9.5h5.2a3.5 3.5 0 0 0 0-7H24v7Z" fill="#ffffff"/>
  <path d="M40.5 34.5a7.5 7.5 0 0 1 7 10.2l4 4a2.2 2.2 0 1 1-3.1 3.1l-4-4a7.5 7.5 0 1 1-3.9-13.3Zm0 4.2a3.3 3.3 0 1 0 0 6.6 3.3 3.3 0 0 0 0-6.6Z" fill="url(#accent)"/>
</svg>
