<svg xmlns="http://www.w3.org/2000/svg" viewBox="0 0 64 64">
  <defs>
    <linearGradient id="bg" x1="10" y1="8" x2="54" y2="56" gradientUnits="userSpaceOnUse">
      <stop offset="0" stop-color="#1b2a48"/>
      <stop offset="1" stop-color="#3d5afe"/>
    </linearGradient>
    <linearGradient id="card" x1="18" y1="16" x2="46" y2="50" gradientUnits="userSpaceOnUse">
      <stop offset="0" stop-color="#38bdf8"/>
      <stop offset="1" stop-color="#34d399"/>
    </linearGradient>
  </defs>
  <rect width="64" height="64" rx="16" fill="url(#bg)"/>
  <circle cx="50" cy="15" r="4" fill="#fb7185"/>
  <path d="M20 14h18l8 8v24c0 2.21-1.79 4-4 4H20c-2.21 0-4-1.79-4-4V18c0-2.21 1.79-4 4-4Z" fill="rgba(255,255,255,0.14)"/>
  <path d="M22 16h16l6 6v22c0 2.21-1.79 4-4 4H22c-2.21 0-4-1.79-4-4V20c0-2.21 1.79-4 4-4Z" fill="url(#card)"/>
  <path d="M38 16v6h6" fill="none" stroke="#e6fffb" stroke-linecap="round" stroke-linejoin="round" stroke-width="2.4"/>
  <path d="M25 28h12" stroke="#083344" stroke-linecap="round" stroke-width="3"/>
  <path d="M25 34h11" stroke="#083344" stroke-linecap="round" stroke-width="3"/>
  <path d="M25 40h8" stroke="#083344" stroke-linecap="round" stroke-width="3"/>
  <path d="M40 36l3 3 6-8" fill="none" stroke="#ffffff" stroke-linecap="round" stroke-linejoin="round" stroke-width="3.2"/>
</svg>
